<svg width="8" height="5" viewBox="0 0 8 5" fill="none" xmlns="http://www.w3.org/2000/svg">
<path d="M7.28 0.47C7.42667 0.616666 7.5 0.793333 7.5 1C7.5 1.21333 7.42667 1.39 7.28 1.53L4.56 4.25L4.53 4.28C4.37 4.42667 4.19333 4.5 4 4.5C3.79333 4.5 3.61667 4.42667 3.47 4.28L0.720001 1.53C0.653334 1.46333 0.6 1.38333 0.56 1.29C0.52 1.19 0.5 1.09333 0.5 1C0.5 0.806666 0.573334 0.629999 0.720001 0.47C0.86 0.323333 1.03667 0.249999 1.25 0.249999C1.34333 0.249999 1.43667 0.27 1.53 0.31C1.63 0.35 1.71333 0.403333 1.78 0.47L4 2.69L6.22 0.47C6.36667 0.323333 6.54333 0.249999 6.75 0.249999C6.84333 0.249999 6.93667 0.27 7.03 0.31C7.13 0.35 7.21333 0.403333 7.28 0.47Z" fill="#1D1C1D"/>
</svg>
